<mxfile host="65bd71144e">
    <diagram id="CfbavopRrjLSKnN-gFyr" name="ページ1">
        <mxGraphModel dx="524" dy="489" grid="1" gridSize="10" guides="1" tooltips="1" connect="1" arrows="1" fold="1" page="1" pageScale="1" pageWidth="1169" pageHeight="827" background="#FFFFFF" math="0" shadow="0">
            <root>
                <mxCell id="0"/>
                <mxCell id="1" parent="0"/>
                <mxCell id="11" style="edgeStyle=none;html=1;entryX=0.5;entryY=0;entryDx=0;entryDy=0;entryPerimeter=0;labelBackgroundColor=#FFFFFF;" parent="1" target="4" edge="1">
                    <mxGeometry relative="1" as="geometry">
                        <mxPoint x="325" y="162" as="sourcePoint"/>
                    </mxGeometry>
                </mxCell>
                <mxCell id="5" value="PV" style="sketch=0;html=1;dashed=0;whitespace=wrap;fillColor=#2875E2;strokeColor=#ffffff;points=[[0.005,0.63,0],[0.1,0.2,0],[0.9,0.2,0],[0.5,0,0],[0.995,0.63,0],[0.72,0.99,0],[0.5,1,0],[0.28,0.99,0]];shape=mxgraph.kubernetes.icon;prIcon=pv;labelPosition=center;verticalLabelPosition=bottom;align=center;verticalAlign=top;labelBackgroundColor=#FFFFFF;" parent="1" vertex="1">
                    <mxGeometry x="300" y="324" width="50" height="48" as="geometry"/>
                </mxCell>
                <mxCell id="12" style="edgeStyle=none;html=1;labelBackgroundColor=#FFFFFF;" parent="1" source="4" target="5" edge="1">
                    <mxGeometry relative="1" as="geometry"/>
                </mxCell>
                <mxCell id="47" value="" style="edgeStyle=none;html=1;" parent="1" source="9" target="4" edge="1">
                    <mxGeometry relative="1" as="geometry"/>
                </mxCell>
                <mxCell id="9" value="Node.js" style="sketch=0;html=1;dashed=0;whitespace=wrap;fillColor=#2875E2;strokeColor=#ffffff;points=[[0.005,0.63,0],[0.1,0.2,0],[0.9,0.2,0],[0.5,0,0],[0.995,0.63,0],[0.72,0.99,0],[0.5,1,0],[0.28,0.99,0]];shape=mxgraph.kubernetes.icon;prIcon=pod;labelPosition=center;verticalLabelPosition=bottom;align=center;verticalAlign=top;labelBackgroundColor=default;" parent="1" vertex="1">
                    <mxGeometry x="300" y="114" width="50" height="48" as="geometry"/>
                </mxCell>
                <mxCell id="13" value="" style="shape=callout;whiteSpace=wrap;html=1;perimeter=calloutPerimeter;labelBackgroundColor=#FFFFFF;position2=1;size=30;position=0.67;flipV=1;flipH=1;base=30;" parent="1" vertex="1">
                    <mxGeometry x="370" y="170" width="180" height="244" as="geometry"/>
                </mxCell>
                <mxCell id="15" value="Node.js server Pod" style="fillColor=none;strokeColor=#5A6C86;dashed=1;verticalAlign=top;fontStyle=0;fontColor=#5A6C86;labelBackgroundColor=#FFFFFF;" parent="1" vertex="1">
                    <mxGeometry x="385" y="224" width="145" height="170" as="geometry"/>
                </mxCell>
                <mxCell id="18" value="Node.js&lt;br&gt;:3000" style="rounded=0;whiteSpace=wrap;html=1;labelBackgroundColor=#FFFFFF;spacingLeft=40;align=left;" parent="1" vertex="1">
                    <mxGeometry x="395" y="259" width="125" height="36" as="geometry"/>
                </mxCell>
                <mxCell id="16" value="" style="sketch=0;outlineConnect=0;fontColor=#232F3E;gradientColor=none;fillColor=#D45B07;strokeColor=none;dashed=0;verticalLabelPosition=bottom;verticalAlign=top;align=center;html=1;fontSize=12;fontStyle=0;aspect=fixed;pointerEvents=1;shape=mxgraph.aws4.container_registry_image;labelBackgroundColor=#FFFFFF;" parent="1" vertex="1">
                    <mxGeometry x="405" y="265" width="20" height="20" as="geometry"/>
                </mxCell>
                <mxCell id="48" style="edgeStyle=none;html=1;entryX=0.855;entryY=0;entryDx=0;entryDy=1.45;entryPerimeter=0;" parent="1" source="20" target="22" edge="1">
                    <mxGeometry relative="1" as="geometry"/>
                </mxCell>
                <mxCell id="20" value="code-server&lt;br&gt;:8080" style="rounded=0;whiteSpace=wrap;html=1;labelBackgroundColor=#FFFFFF;align=left;spacingRight=2;spacingLeft=40;" parent="1" vertex="1">
                    <mxGeometry x="395" y="306" width="125" height="36" as="geometry"/>
                </mxCell>
                <mxCell id="17" value="" style="sketch=0;outlineConnect=0;fontColor=#232F3E;gradientColor=none;fillColor=#D45B07;strokeColor=none;dashed=0;verticalLabelPosition=bottom;verticalAlign=top;align=center;html=1;fontSize=12;fontStyle=0;aspect=fixed;pointerEvents=1;shape=mxgraph.aws4.container_registry_image;labelBackgroundColor=#FFFFFF;" parent="1" vertex="1">
                    <mxGeometry x="405" y="314" width="20" height="20" as="geometry"/>
                </mxCell>
                <mxCell id="27" style="edgeStyle=none;html=1;entryX=0.995;entryY=0.63;entryDx=0;entryDy=0;entryPerimeter=0;labelBackgroundColor=#FFFFFF;" parent="1" source="22" target="5" edge="1">
                    <mxGeometry relative="1" as="geometry"/>
                </mxCell>
                <mxCell id="22" value="" style="shape=cylinder3;whiteSpace=wrap;html=1;boundedLbl=1;backgroundOutline=1;size=5;labelBackgroundColor=#FFFFFF;" parent="1" vertex="1">
                    <mxGeometry x="395" y="352" width="35" height="30" as="geometry"/>
                </mxCell>
                <mxCell id="23" value="/home/coder" style="text;html=1;strokeColor=none;fillColor=none;align=left;verticalAlign=middle;whiteSpace=wrap;rounded=0;labelBackgroundColor=#FFFFFF;" parent="1" vertex="1">
                    <mxGeometry x="440" y="352" width="80" height="30" as="geometry"/>
                </mxCell>
                <mxCell id="4" value="PVC" style="sketch=0;html=1;dashed=0;whitespace=wrap;fillColor=#2875E2;strokeColor=#ffffff;points=[[0.005,0.63,0],[0.1,0.2,0],[0.9,0.2,0],[0.5,0,0],[0.995,0.63,0],[0.72,0.99,0],[0.5,1,0],[0.28,0.99,0]];shape=mxgraph.kubernetes.icon;prIcon=pvc;labelPosition=center;verticalLabelPosition=bottom;align=center;verticalAlign=top;labelBackgroundColor=#FFFFFF;" parent="1" vertex="1">
                    <mxGeometry x="300" y="234" width="50" height="48" as="geometry"/>
                </mxCell>
                <mxCell id="35" value="" style="sketch=0;html=1;dashed=0;whitespace=wrap;fillColor=#2875E2;strokeColor=#ffffff;points=[[0.005,0.63,0],[0.1,0.2,0],[0.9,0.2,0],[0.5,0,0],[0.995,0.63,0],[0.72,0.99,0],[0.5,1,0],[0.28,0.99,0]];shape=mxgraph.kubernetes.icon;prIcon=deploy;labelBackgroundColor=default;" parent="1" vertex="1">
                    <mxGeometry x="300" y="114" width="50" height="48" as="geometry"/>
                </mxCell>
                <mxCell id="44" value="&lt;h1&gt;設定変更&lt;/h1&gt;&lt;p&gt;&amp;nbsp; /home/coderの共有マウント&lt;br&gt;&amp;nbsp; 実行対象コードの切り替え&lt;br&gt;&amp;nbsp; liveness probe の切り替え&amp;nbsp;&lt;/p&gt;" style="text;html=1;strokeColor=none;fillColor=none;spacing=5;spacingTop=-20;whiteSpace=wrap;overflow=hidden;rounded=0;labelBackgroundColor=default;" parent="1" vertex="1">
                    <mxGeometry x="640" y="259" width="210" height="145" as="geometry"/>
                </mxCell>
                <mxCell id="46" value="" style="shape=flexArrow;endArrow=classic;html=1;" parent="1" edge="1">
                    <mxGeometry width="50" height="50" relative="1" as="geometry">
                        <mxPoint x="630" y="277" as="sourcePoint"/>
                        <mxPoint x="530" y="277" as="targetPoint"/>
                        <Array as="points">
                            <mxPoint x="575" y="276.5"/>
                        </Array>
                    </mxGeometry>
                </mxCell>
                <mxCell id="49" style="edgeStyle=none;html=1;entryX=0.5;entryY=0;entryDx=0;entryDy=0;entryPerimeter=0;" parent="1" source="18" target="22" edge="1">
                    <mxGeometry relative="1" as="geometry"/>
                </mxCell>
            </root>
        </mxGraphModel>
    </diagram>
</mxfile>